<svg width="24" height="24" viewBox="0 0 24 24" fill="none" xmlns="http://www.w3.org/2000/svg">
<path fill-rule="evenodd" clip-rule="evenodd" d="M9 2H11V22H9V20H7V18H9V6H7V4H9V2ZM5 8V6H7V8H5ZM3 10H5V8H3H1V10V14V16H3H5V18H7V16H5V14H3V10Z" fill="#FC6095"/>
<rect x="14.9998" y="11" width="2" height="2" fill="#FC6095"/>
<rect x="13" y="9" width="2" height="2" fill="#FC6095"/>
<rect x="16.9998" y="13" width="2" height="2" fill="#FC6095"/>
<rect x="16.9998" y="9" width="2" height="2" fill="#FC6095"/>
<rect x="13" y="13" width="2" height="2" fill="#FC6095"/>
</svg>
